<svg viewBox="346.7625000000003 668.0769230769233 3269.475000000001 2721.7948717948716" xmlns="http://www.w3.org/2000/svg" xmlns:xlink="http://www.w3.org/1999/xlink" xmlns:blush="http://design.blush" overflow="visible" width="3269.475000000001px" height="2721.7948717948716px"><defs><polygon id="masterspot-illustrationhappy-place-path-1" points="0 0.793997108 261.239057 0.793997108 261.239057 411.6245 0 411.6245"/><polygon id="masterspot-illustrationhappy-place-path-3" points="0 0.0722 432.2748 0.0722 432.2748 402 0 402"/><polygon id="masterspot-illustrationhappy-place-path-5" points="0.0002 0.5766 635.257 0.5766 635.257 364.999817 0.0002 364.999817"/><polygon id="masterspot-illustrationhappy-place-path-7" points="0 365.424 635.257 365.424 635.257 1 0 1"/><polygon id="masterspot-illustrationhappy-place-path-9" points="0.2961 0.0297382716 168.575 0.0297382716 168.575 293.567627 0.2961 293.567627"/></defs><g id="Master/Spot Illustration/Happy Place" stroke="none" stroke-width="1" fill="none" fill-rule="evenodd" blush:viewBox="376.4850000000001 909.5174537987682 3210.0300000000007 2457.084188911704" blush:i="0"><g id="Blobs" opacity=".5" transform="translate(1651.000000, 1627.000000) scale(-1, 1) translate(-1651.000000, -1627.000000) translate(528.000000, 327.000000) scale(1 1)" blush:width="2246" blush:height="2600" blush:component="Blobs" blush:i="0.0" blush:value="5" blush:viewBox="460.1180555555552 377 1325.7638888888891 1846.0000000000002"><g id="Blobs/5" stroke="none" stroke-width="1" fill="none" fill-rule="evenodd" blush:viewBox="460.1180555555552 377 1325.7638888888891 1846.0000000000002" blush:i="0.0.0"><path d="M1195.33444,501.853191 L1204.89851,506.553138 C1361.38601,583.829332 1530.74972,686.387494 1628.81801,854.298622 C1727.06365,1022.58945 1754.01387,1256.23324 1769.60733,1470.94568 L1770.54835,1484.06697 C1786.19349,1702.72445 1791.28727,1899.87898 1734.54361,2028.17946 C1678.00828,2156.38295 1559.63551,2215.7324 1414.48876,2213.96154 C1269.342,2212.19069 1097.2403,2148.91209 950.234011,1993.29187 C803.019387,1837.76863 680.900183,1589.90376 590.679491,1337.56691 C500.458799,1085.23006 442.10926,828.905652 473.638212,658.570083 C505.556476,488.524975 627.32587,404.953136 760.090422,388.903477 C892.646637,372.950801 1036.40635,424.423322 1195.33444,501.853191 Z" id="Path" fill="#FFF5F3" transform="translate(1123.000000, 1300.000000) scale(-1, -1) translate(-1123.000000, -1300.000000)" blush:i="0.0.0.0"/></g></g><ellipse id="Floor" fill="#D5ECFF" opacity=".5" cx="1982" cy="3206" rx="1602" ry="58" blush:i="0.1"/><g id="Tall Vase Plant" transform="translate(2207.000000, 859.000000) scale(1 1)" blush:width="1377" blush:height="2347" blush:component="Tall Vase Plant" blush:i="0.2" blush:value="Plant 2" blush:viewBox="-10.574232081911305 129.08500000000004 1398.1484641638226 2217.9149999999995"><g id="Tall Vase Plant/Plant 2" stroke="none" stroke-width="1" fill="none" fill-rule="evenodd" blush:viewBox="-10.574232081911305 129.08500000000004 1398.1484641638226 2217.9149999999995" blush:i="0.2.0"><g id="Tall-Vase-Plant-3" transform="translate(0.000000, 130.000000)" blush:i="0.2.0.0"><path d="M811.817443,1109.99103 C811.817443,1109.99103 1196.75744,1033.14603 1336.00144,719.884028 C1475.24444,406.622028 1223.41944,430.323028 1060.70944,588.886028 C897.999443,747.449028 822.234443,924.913028 811.817443,1109.99103" id="Fill-29" fill="#F9C818" blush:i="0.2.0.0.0"/><path d="M724.115343,1512.99783 C724.082343,1512.51083 720.973343,1463.39983 732.775343,1384.13983 C743.650343,1311.10383 769.780343,1196.62283 832.500343,1065.99783 C895.155343,935.511828 964.048343,835.615828 1010.81034,774.790828 C1061.52434,708.825828 1097.95634,673.212828 1098.31834,672.860828 L1103.89534,678.596828 C1103.53634,678.945828 1067.42134,714.262828 1017.03134,779.825828 C970.534343,840.321828 902.028343,939.678828 839.712343,1069.46083 C777.485343,1199.05783 751.539343,1312.59783 740.731343,1385.02583 C729.018343,1463.51783 732.065343,1511.98083 732.097343,1512.46083 L724.115343,1512.99783 Z" id="Fill-30" fill="#0A4343" blush:i="0.2.0.0.1"/><path d="M721.235943,807.364328 C721.235943,807.364328 1059.81694,641.476328 1086.84394,303.682328 C1113.87094,-34.1116722 883.488943,48.5553278 782.530943,241.365328 C681.572943,434.175328 669.212943,624.799328 721.235943,807.364328" id="Fill-31" fill="#237978" blush:i="0.2.0.0.2"/><path d="M659.676343,905.054728 C659.676343,905.054728 295.013343,609.803728 344.717343,226.480728 C394.421343,-156.843272 649.884343,10.5707278 723.810343,257.501728 C797.736343,504.432728 766.230343,719.798728 659.676343,905.054728" id="Fill-32" fill="#F9C818" blush:i="0.2.0.0.3"/><path d="M625.411643,934.447028 C625.411643,934.447028 165.614643,840.967028 32.6806426,478.013028 C-100.254357,115.059028 203.649643,145.577028 383.254643,330.462028 C562.859643,515.346028 634.370643,720.922028 625.411643,934.447028" id="Fill-33" fill="#237978" blush:i="0.2.0.0.4"/><path d="M681.122643,1562.08693 C680.936643,1560.02393 662.819643,1352.74693 682.367643,1092.42993 C693.851643,939.497928 715.895643,798.419928 747.886643,673.114928 C787.916643,516.321928 843.732643,383.890928 913.785643,279.499928 L920.427643,283.957928 C850.895643,387.573928 795.458643,519.146928 755.656643,675.021928 C723.780643,799.856928 701.809643,940.449928 690.354643,1092.89593 C670.842643,1352.58193 688.905643,1559.31393 689.090643,1561.37093 L681.122643,1562.08693 Z" id="Fill-34" fill="#0A4343" blush:i="0.2.0.0.5"/><path d="M521.068943,1819.06403 L513.480943,1816.53103 C514.211943,1814.34003 586.995943,1593.91403 621.861943,1283.12203 C642.333943,1100.64503 645.921943,923.181028 632.526943,755.660028 C615.789943,546.350028 572.340943,352.066028 503.387943,178.204028 L510.824943,175.254028 C580.084943,349.890028 623.716943,544.991028 640.510943,755.140028 C653.940943,923.195028 650.333943,1101.20003 629.790943,1284.20903 C594.815943,1595.79203 521.801943,1816.86703 521.068943,1819.06403" id="Fill-35" fill="#0A4343" blush:i="0.2.0.0.6"/><path d="M603.106943,2216.72903 L731.106943,2216.72903 C858.132435,2216.72903 961.106943,2113.75452 961.106943,1986.72903 L961.106943,1483.72903 L961.106943,1483.72903 L373.106943,1483.72903 L373.106943,1986.72903 C373.106943,2113.75452 476.08145,2216.72903 603.106943,2216.72903 Z" id="Fill-36" fill="#204EB2" blush:i="0.2.0.0.7"/><path d="M639.113843,1031.96973 C635.217843,967.330728 609.652843,892.980728 563.129843,810.985728 C525.266843,744.254728 473.391843,672.151728 408.943843,596.679728 C307.352843,477.710728 201.322843,381.985728 160.451843,346.351728 C158.855843,344.960728 157.828843,344.064728 157.415843,343.688728 L162.797843,337.769728 C163.193843,338.129728 164.178843,338.987728 165.708843,340.321728 C206.713843,376.072728 313.091843,472.111728 415.027843,591.484728 C479.804843,667.343728 531.974843,739.865728 570.087843,807.037728 C617.218843,890.104728 643.128843,965.620728 647.098843,1031.48873 L639.113843,1031.96973 Z" id="Fill-38" fill="#0A4343" blush:i="0.2.0.0.8"/></g></g></g><g id="Pet" transform="translate(1190.000000, 2772.500000) scale(-1, 1) translate(-1190.000000, -2772.500000) translate(411.000000, 2227.000000) scale(1 1)" blush:width="1558" blush:height="1091" blush:component="Pet" blush:i="0.3" blush:value="Dog 1" blush:viewBox="358.34000000000015 264.9571428571428 841.3199999999999 826.0428571428571"><defs blush:i="0.3.0"><polygon id="petdog-1-path-1" points="0.738028712 0.439759466 779.924 0.439759466 779.924 696.4825 0.738028712 696.4825" blush:i="0.3.0.0"/><polygon id="petdog-1-path-3" points="0.2817 0.0902 77.6184974 0.0902 77.6184974 118 0.2817 118" blush:i="0.3.0.1"/></defs><g id="Pet/Dog 1" stroke="none" stroke-width="1" fill="none" fill-rule="evenodd" blush:viewBox="358.34000000000015 264.9571428571428 841.3199999999999 826.0428571428571" blush:i="0.3.1"><g id="Animal" transform="translate(362.000000, 269.000000)" blush:i="0.3.1.0"><path d="M78.9106,514.7535 C78.9106,514.7535 72.2586,564.8635 21.3696,526.6975 C-29.5194,488.5305 26.4586,456.3015 26.4586,456.3015 C26.4586,456.3015 -20.1904,418.9825 12.0396,389.2975 C44.2686,359.6125 93.4616,359.6125 93.4616,359.6125 C93.4616,359.6125 102.7916,301.9395 146.8936,340.9535 C190.9976,379.9685 153.6796,408.8055 153.6796,408.8055 C153.6796,408.8055 165.0566,413.5395 174.2106,428.9835 C183.3646,444.4275 78.9106,514.7535 78.9106,514.7535" id="Fill-1" fill="#56ACF6" blush:i="0.3.1.0.0"/><g id="Group-5" transform="translate(54.000000, 10.021000)" blush:i="0.3.1.0.1"><mask id="petdog-1-mask-2" fill="#ffffff" blush:i="0.3.1.0.1.0"><use xlink:href="#petdog-1-path-1" fill="#ffffff" blush:i="0.3.1.0.1.0.0"/></mask><g id="Clip-4" blush:i="0.3.1.0.1.1"/><path d="M468.6226,318.2105 C468.6226,318.2105 399.0746,396.2395 302.3866,407.2655 C205.6976,418.2915 73.3876,364.0105 16.5616,514.1315 C-40.2644,664.2535 74.2356,694.7865 74.2356,694.7865 L254.0416,693.9385 L350.7296,667.6455 L406.7076,611.6685 C406.7076,611.6685 460.9886,634.5685 487.2816,693.0905 L751.9016,696.4825 C751.9016,696.4825 777.3466,662.5565 779.8916,604.0345 C782.4346,545.5135 638.2516,387.7585 643.3406,338.5655 C648.4296,289.3735 644.1876,213.0405 628.0736,164.6965 C611.9586,116.3525 587.3626,9.4865 540.7146,2.7015 C494.0666,-4.0845 472.8626,16.2715 441.4816,2.7015 C410.1006,-10.8695 400.7706,39.1715 421.1266,84.9705 C441.4816,130.7705 482.1926,281.7405 468.6226,318.2105" id="Fill-3" fill="#56ACF6" mask="url(#petdog-1-mask-2)" blush:i="0.3.1.0.1.2"/></g><path d="M519.6733,272.9296 C519.6733,272.9296 610.8293,323.9906 660.0223,312.1166 L665.1103,369.7906 C665.1103,369.7906 569.2703,374.0316 522.6223,328.2316 L519.6733,272.9296 Z" id="Fill-6" fill="#E93737" blush:i="0.3.1.0.2"/><path d="M614.2222,389.722 C614.2222,407.288 599.9822,421.527 582.4162,421.527 C564.8512,421.527 550.6112,407.288 550.6112,389.722 C550.6112,372.156 564.8512,357.917 582.4162,357.917 C599.9822,357.917 614.2222,372.156 614.2222,389.722" id="Fill-8" fill="#E93737" blush:i="0.3.1.0.3"/><path d="M620.1587,27.9886 C620.1587,27.9886 707.5177,125.5256 721.9357,183.1986 C736.3537,240.8726 766.3007,371.3106 711.4647,377.7596 C656.6297,384.2086 660.8697,389.2976 642.2107,303.6356 C623.5517,217.9726 595.5627,150.1216 606.5887,120.4366 C617.6147,90.7516 591.4647,21.8146 620.1587,27.9886" id="Fill-10" fill="#56ACF6" blush:i="0.3.1.0.4"/><path d="M505.6597,19.9313 C505.6597,30.9393 496.7357,39.8623 485.7277,39.8623 C474.7207,39.8623 465.7967,30.9393 465.7967,19.9313 C465.7967,8.9233 474.7207,0.0003 485.7277,0.0003 C496.7357,0.0003 505.6597,8.9233 505.6597,19.9313" id="Fill-12" fill="#204EB2" blush:i="0.3.1.0.5"/><path d="M408.9712,703.1112 L551.5192,706.0512 L532.8002,614.0562 L408.9712,614.9042 C408.9712,614.9042 384.3742,686.9962 408.9712,703.1112" id="Fill-14" fill="#56ACF6" blush:i="0.3.1.0.6"/><path d="M524.2368,110.158 C501.2628,110.158 484.5588,105.17 474.4468,95.259 C464.0908,85.109 464.8678,73.58 464.9068,73.094 L472.8818,73.721 L468.8938,73.408 L472.8838,73.688 C472.8628,74.033 472.4538,82.232 480.2168,89.712 C487.7948,97.012 504.7628,104.93 542.5848,101.189 L543.3718,109.15 C536.5758,109.822 530.1958,110.158 524.2368,110.158" id="Fill-16" fill="#204EB2" blush:i="0.3.1.0.7"/><path d="M305.7378,647.1503 C305.4178,570.1313 289.8218,520.1013 260.6368,502.4683 C235.2948,487.1563 207.5478,501.2613 207.2678,501.4053 L203.5578,494.3183 C204.8468,493.6423 235.4428,477.9683 264.6858,495.5673 C296.8958,514.9523 313.3998,565.9413 313.7378,647.1173 L305.7378,647.1503 Z" id="Fill-18" fill="#204EB2" blush:i="0.3.1.0.8"/><path d="M603.5776,651.5787 C587.9166,594.1517 569.9886,551.4127 557.7076,525.6707 C544.4006,497.7787 534.6726,483.2807 534.5756,483.1377 L541.2026,478.6567 C541.6066,479.2547 551.2786,493.6487 564.8226,522.0047 C577.2746,548.0767 595.4456,591.3547 611.2966,649.4737 L603.5776,651.5787 Z" id="Fill-20" fill="#204EB2" blush:i="0.3.1.0.9"/><path d="M664.731,644.9737 L662.097,637.4197 C663.608,636.8927 699.603,624.4837 743.757,621.9367 L744.218,629.9237 C701.23,632.4037 665.091,644.8487 664.731,644.9737" id="Fill-22" fill="#204EB2" blush:i="0.3.1.0.10"/><path d="M537.5952,704.6634 C511.3242,642.2704 402.3102,585.9494 401.2122,585.3874 L404.8552,578.2654 C405.1352,578.4084 433.2542,592.8624 464.3052,615.0414 C506.2822,645.0254 533.4202,674.1334 544.9682,701.5594 L537.5952,704.6634 Z" id="Fill-24" fill="#204EB2" blush:i="0.3.1.0.11"/><g id="Group-28" transform="translate(541.000000, 703.021000)" blush:i="0.3.1.0.12"><mask id="petdog-1-mask-4" fill="#ffffff" blush:i="0.3.1.0.12.0"><use xlink:href="#petdog-1-path-3" fill="#ffffff" blush:i="0.3.1.0.12.0.0"/></mask><g id="Clip-27" blush:i="0.3.1.0.12.1"/><path d="M0.2817,0.0902 C0.2817,0.0902 16.3957,119.6782 47.7777,117.9822 C79.1587,116.2862 82.5197,68.3472 72.7817,1.1412 L0.2817,0.0902 Z" id="Fill-26" fill="#AEE2FF" mask="url(#petdog-1-mask-4)" blush:i="0.3.1.0.12.2"/></g><path d="M663.4146,641.1966 C663.4146,641.1966 686.0856,667.5106 679.5286,704.8076 L613.3736,703.9596 C613.3736,703.9596 570.1186,677.6666 607.4366,650.5266 L663.4146,641.1966 Z" id="Fill-29" fill="#AEE2FF" blush:i="0.3.1.0.13"/><path d="M308.8901,703.9593 L408.9711,703.1113 C408.9711,703.1113 430.1741,676.8183 388.6161,657.3113 C347.0561,637.8043 309.7381,645.4373 309.7381,645.4373 L308.8901,703.9593 Z" id="Fill-31" fill="#AEE2FF" blush:i="0.3.1.0.14"/><path d="M613.3052,19.7707 C613.3052,19.7707 715.9982,72.9407 719.3912,131.4627 C722.7842,189.9837 766.0392,203.5547 761.7982,285.8247 C757.5582,368.0947 729.4282,375.0967 704.9032,376.6847 C680.3772,378.2717 679.5292,240.0247 679.5292,240.0247 C679.5292,240.0247 564.0442,28.5157 613.3052,19.7707" id="Fill-33" fill="#56ACF6" blush:i="0.3.1.0.15"/><path d="M685.7915,384.8459 C680.3765,384.8459 674.4535,383.8369 668.7035,380.8829 C655.8895,374.2979 647.6115,359.9939 644.1015,338.3709 C639.5995,310.6439 631.7745,289.1899 624.8715,270.2609 C616.4665,247.2129 609.2065,227.3079 611.4305,204.6799 C615.2055,166.2639 608.7815,145.6079 608.7165,145.4039 L616.3355,142.9649 C616.6225,143.8629 623.3275,165.4169 619.3915,205.4619 C617.3465,226.2769 623.9835,244.4779 632.3875,267.5199 C639.4125,286.7819 647.3745,308.6139 651.9975,337.0889 C655.0785,356.0669 661.9305,368.4069 672.3595,373.7669 C686.5775,381.0719 703.0315,373.0739 703.1955,372.9919 L706.7505,380.1589 C706.1955,380.4339 697.1095,384.8459 685.7915,384.8459" id="Fill-35" fill="#204EB2" blush:i="0.3.1.0.16"/></g></g></g><g transform="translate(876.000000, 650.000000) scale(1 1)" blush:has-customizable-colors="true" blush:width="2330" blush:height="2708" id="Master/Character/Sitting On Floor" blush:component="Master/Character/Sitting On Floor" blush:i="0.4" blush:value="Sitting On Floor" blush:viewBox="1110.8139534883721 1326.92 1151.4534883720937 1381.0799999999997"><defs blush:i="0.4.0"><polygon id="mastercharactersitting-on-floor-path-1" points="0 0.216 1141.521 0.216 1141.521 422.785934 0 422.785934" blush:i="0.4.0.0"/></defs><g id="Master/Character/Sitting On Floor" stroke="none" stroke-width="1" fill="none" fill-rule="evenodd" blush:has-customizable-colors="true" blush:viewBox="1110.8139534883721 1326.92 1151.4534883720937 1381.0799999999997" blush:i="0.4.1"><g id="Upper Body" transform="translate(911.000000, 1329.000000) scale(1 1)" blush:width="1578" blush:height="1152" blush:component="Upper Body" blush:i="0.4.1.0" blush:value="With Laptop" blush:viewBox="299.81999999999994 -3.9452054794520564 1136.16 1033.6438356164383"><defs blush:i="0.4.1.0.0"><polygon id="upper-bodywith-laptop-path-1" points="0.1808 0.1553 298.703924 0.1553 298.703924 343 0.1808 343" blush:i="0.4.1.0.0.0"/><polygon id="upper-bodywith-laptop-path-3" points="0.550418291 0.388 141.311628 0.388 141.311628 92.088834 0.550418291 92.088834" blush:i="0.4.1.0.0.1"/></defs><g id="Upper Body/With Laptop" stroke="none" stroke-width="1" fill="none" fill-rule="evenodd" blush:viewBox="299.81999999999994 -3.9452054794520564 1136.16 1033.6438356164383" blush:i="0.4.1.0.1"><path d="M724.954254,220 C724.954254,220 721.26343,301.153386 673.924004,329.799638 C630.972611,355.790794 721.968632,506.610475 819.857852,497.613536 C873.442212,492.688212 886,346.158072 886,346.158072 C886,346.158072 842.733964,337.796917 858.715877,271.819367 L724.954254,220 Z" id="Neck" fill="#ecafa3" blush:color="Skin-500" blush:i="0.4.1.0.1.0"/><path d="M803.337113,302.515641 C739.876612,294.840687 694.077698,253.11575 687.664652,183.898064 C669.216286,186.83496 664.86504,138.764927 670.003065,123.322958 C675.146083,107.858975 691.933027,116.900812 691.933027,116.900812 C692.862251,114.457234 693.652358,111.898916 694.303348,109.225857 C722.02532,-4.48555283 799.669805,0.0243586862 799.669805,0.0243586862 C942.344355,7.45715716 908.914243,153.120195 900.762895,191.763142 C892.610548,230.410091 864.683894,309.927426 803.337113,302.515641 Z" id="Head" fill="#ecafa3" blush:color="Skin-500" blush:i="0.4.1.0.1.1"/><g id="Group-25" transform="translate(266.000000, 320.000000)" blush:i="0.4.1.0.1.2"><g id="Group-19" transform="translate(0.000000, 0.612000)" blush:i="0.4.1.0.1.2.0"><path d="M105.050047,289.936251 C33.5168788,376.727653 8.92577071,446.699768 31.2767231,499.852598 C64.8031518,579.581843 146.951413,496.522302 192.490195,395.604271 C222.849383,328.325583 260.283957,276.925705 304.793918,241.404634 L105.050047,289.936251 Z" id="Path" fill="#ecafa3" transform="translate(164.044509, 386.561708) rotate(-10.000000) translate(-164.044509, -386.561708)" blush:color="Skin-500" blush:i="0.4.1.0.1.2.0.0"/><g id="Group-3" transform="translate(695.000000, 361.000000)" blush:i="0.4.1.0.1.2.0.1"><mask id="upper-bodywith-laptop-mask-2" fill="#ffffff" blush:i="0.4.1.0.1.2.0.1.0"><use xlink:href="#upper-bodywith-laptop-path-1" fill="#ffffff" blush:i="0.4.1.0.1.2.0.1.0.0"/></mask><g id="Clip-2" blush:i="0.4.1.0.1.2.0.1.1"/></g><path d="M280.8551,41.1066 C363.7551,15.4706 389.3011,14.0266 389.3011,14.0266 L476.8081,32.8846 C476.8081,32.8846 524.7691,95.9186 528.8791,152.1006 C528.8791,152.1006 530.2491,78.1046 561.7671,27.4036 C561.7671,27.4036 700.4791,26.1286 752.7731,80.7306 C835.3711,166.9736 833.813167,318.3006 833.813167,318.3006 L697.5221,332.3166 L752.7731,255.388 C752.7731,255.388 756.263179,568.804637 748.041179,649.652637 C644,764.422821 270,675.591107 270,675.591107 C270,675.591107 278.1151,416.25183 279.4851,345.3136 C280.8551,274.37537 254.6201,283.9566 218.4531,371.8906 C188.8861,443.7816 94.8851,294.7296 94.8851,294.7296 C94.8851,294.7296 152.5811,80.7726 280.8551,41.1066 Z" id="Fill-4" fill="#1BC0D7" blush:i="0.4.1.0.1.2.0.2"/><path d="M704.0424,431.7121 C704.0424,431.7121 771.3394,407.5801 839.7714,421.8301 C839.7714,421.8301 838.8854,399.4921 839.5874,369.9961 C840.1634,345.7711 853.4304,308.2791 805.5564,312.3171 C749.8404,317.0161 725.9594,317.5081 701.7344,328.4671 C701.7344,328.4671 695.9674,408.6411 704.0424,431.7121" id="Fill-6" fill="#FCEBEC" blush:i="0.4.1.0.1.2.0.3"/><path d="M63.9394,341.7921 L93.2847063,249.4471 C93.2847063,249.4471 201.904517,226.7581 244.9394,320.6421 L212.685338,404.2371 C212.685338,404.2371 152.370466,315.2971 63.9394,341.7921" id="Fill-10" fill="#237978" blush:i="0.4.1.0.1.2.0.4"/><g id="Group-14" transform="translate(338.000000, 0.000000)" blush:i="0.4.1.0.1.2.0.5"><mask id="upper-bodywith-laptop-mask-4" fill="#ffffff" blush:i="0.4.1.0.1.2.0.5.0"><use xlink:href="#upper-bodywith-laptop-path-3" fill="#ffffff" blush:i="0.4.1.0.1.2.0.5.0.0"/></mask><g id="Clip-13" blush:i="0.4.1.0.1.2.0.5.1"/><path d="M52.6986,0.4875 C52.6986,0.4875 -2.7084,19.2415 0.7016,24.3555 C4.1106,29.4695 102.4766,94.8915 109.8506,91.9955 C117.2246,89.0985 144.8776,36.6905 140.9276,31.4235 C136.9766,26.1565 57.4346,-1.4785 52.6986,0.4875" id="Fill-12" fill="#237978" mask="url(#upper-bodywith-laptop-mask-4)" blush:i="0.4.1.0.1.2.0.5.2"/></g><path d="M650.6088,23.2834 C650.6088,23.2834 698.2988,57.1534 693.5648,61.0734 C688.8308,64.9934 575.8238,99.4234 569.5908,94.5314 C563.3598,89.6394 551.9168,31.4994 557.2118,27.5884 C562.5088,23.6774 646.6358,20.0404 650.6088,23.2834" id="Fill-15" fill="#237978" blush:i="0.4.1.0.1.2.0.6"/><path d="M123.259851,445.031349 C166.893554,466.002349 153.233851,474.731349 174.524851,487.829349 C195.815851,500.928349 228.449851,535.078349 239.694851,527.258349 C250.938851,519.438349 247.765851,512.512349 236.068851,502.885349 C224.372851,493.257349 188.169851,461.709349 192.145851,456.921349 C196.122851,452.133349 257.341851,520.465349 275.349851,508.401349 C293.357851,496.336349 254.631851,465.557349 235.864851,452.620349 C217.098851,439.684349 206.592851,428.138349 212.609851,426.196349 C218.626851,424.255349 289.502851,499.367349 303.228851,487.951349 C316.956851,476.535349 291.560851,450.435349 272.692851,437.256349 C253.825851,424.077349 224.797851,402.906349 224.797851,402.906349 C224.797851,402.906349 262.223851,418.298349 291.053851,445.811349 C319.883851,473.323349 326.829851,471.564349 330.441851,465.221349 C334.053851,458.878349 304.306851,424.060349 304.306851,424.060349 C304.306851,424.060349 305.316851,383.621349 266.957851,370.249349 C228.598851,356.878349 199.545851,336.218349 159.169851,339.440349 C118.793851,342.660349 106.355352,366.565153 106.355352,366.565153 C106.355352,366.565153 79.6261472,424.060349 123.259851,445.031349 Z" id="Fill-8" fill="#ecafa3" transform="translate(214.499157, 433.756203) rotate(30.000000) translate(-214.499157, -433.756203)" blush:color="Skin-500" blush:i="0.4.1.0.1.2.0.7"/><path d="M662.9867,209.88 L572.1647,209.88 C568.4677,209.88 565.4707,206.884 565.4707,203.188 L565.4707,195.319 C565.4707,191.624 568.4677,188.627 572.1647,188.627 L662.9867,188.627 C666.6827,188.627 669.6787,191.624 669.6787,195.319 L669.6787,203.188 C669.6787,206.884 666.6827,209.88 662.9867,209.88" id="Fill-17" fill="#237978" blush:i="0.4.1.0.1.2.0.8"/></g><g id="Group-24" transform="translate(397.000000, 175.000000)" blush:i="0.4.1.0.1.2.1"><path d="M185.2874,372.4279 L2.5724,321.7809 C2.5724,321.7809 -8.7866,309.7899 24.6594,306.6349 C58.1044,303.4799 407.5584,294.1429 407.5584,294.1429 L185.2874,372.4279 Z" id="Fill-20" fill="#204EB2" blush:i="0.4.1.0.1.2.1.0"/><path d="M703.3129,371.8791 L190.8269,371.8791 C181.3339,371.8791 173.6369,364.1841 173.6369,354.6901 L220.1609,17.2031 C220.1609,7.7101 227.8559,0.0141 237.3489,0.0141 L749.8349,0.0141 C759.3289,0.0141 767.0249,7.7101 767.0249,17.2031 L720.5009,354.6901 C720.5009,364.1841 712.8059,371.8791 703.3129,371.8791" id="Fill-22" fill="#3267C8" blush:i="0.4.1.0.1.2.1.1"/></g><g id="Group-2" transform="translate(893.239277, 513.555823) scale(-1, 1) rotate(-72.000000) translate(-893.239277, -513.555823) translate(800.239277, 441.555823)" blush:i="0.4.1.0.1.2.2"><path d="M34.8019558,0.721228206 C34.8019558,0.721228206 30.1385768,5.272 25.5025768,10.938 C20.8665768,16.604 24.9875768,17.635 14.6855768,28.452 C4.38357684,39.27 -14.1604232,66.57 18.2905768,108.294 C50.7435768,150.018 61.5605768,146.411 74.9535768,139.2 C88.3455768,131.988 89.8915768,126.838 115.131577,124.262 C140.371577,121.687 164.581577,96.961 164.066577,90.78 L163.551577,84.599 C163.551577,84.599 186.730577,75.842 185.186577,66.055 C183.640577,56.268 176.944577,57.298 176.944577,57.298 C176.944577,57.298 181.580577,52.662 177.974577,44.42 C174.368577,36.179 157.370577,37.724 137.795577,40.3 C118.222577,42.875 67.7415768,53.177 64.6505768,51.117 C61.5605768,49.057 62.5905768,45.966 74.4375768,44.42 C86.2855768,42.875 134.190577,42.36 134.190577,28.967 C134.190577,15.574 119.767577,12.999 91.9515768,13.514 C64.1355768,14.029 58.9845768,12.483 52.2885768,15.06 L39.9277765,16.4968824 C36.5105627,5.9797796 34.8019558,0.721228206 34.8019558,0.721228206 Z" id="Fill-12" fill="#ecafa3" blush:color="Skin-500" blush:i="0.4.1.0.1.2.2.0"/><path d="M177.350177,57.2402 C177.350177,57.2402 178.830177,56.1722 167.807177,60.3812 C163.793177,61.9132 158.133177,63.5122 150.159177,65.0242 C120.282177,70.6902 73.4081768,80.9932 58.9851768,83.0532 C44.5611768,85.1142 56.4091768,88.2042 89.3761768,81.5082 C122.343177,74.8112 161.588177,65.8282 163.350177,65.2402 C166.350177,64.2402 175.350177,61.2402 177.350177,57.2402" id="Fill-14" fill="#000" blush:i="0.4.1.0.1.2.2.1"/><path d="M116.349877,99.2405 C103.608877,102.4255 82.3498768,107.2405 80.1038768,107.7785 C76.0968768,108.7395 68.2558768,110.3545 68.2558768,110.3545 C68.2558768,110.3545 68.3498768,113.2405 92.3498768,108.2405 C98.3048768,107.0005 109.349877,105.2405 116.349877,103.2405 C122.788877,101.4005 146.037877,95.4165 149.128877,92.8405 C152.218877,90.2645 152.733877,87.6895 152.733877,87.6895 C152.733877,87.6895 128.349877,96.2405 116.349877,99.2405 Z" id="Fill-16" fill="#000" blush:i="0.4.1.0.1.2.2.2"/></g></g></g></g><g id="Lower Body/Sitting on Floor" transform="translate(1165.000000, 2270.000000) scale(-1, 1) translate(-1165.000000, -2270.000000) translate(0.000000, 1832.000000) scale(1 1)" blush:width="2330" blush:height="876" blush:component="Lower Body/Sitting on Floor" blush:i="0.4.1.1" blush:value="Spread Out 2" blush:viewBox="372.7999999999997 -4.659574468085111 1945.5499999999997 885.3191489361702"><defs blush:i="0.4.1.1.0"><polygon id="lower-bodysitting-on-floorspread-out-2-path-1" points="0.2961 0.0297382716 168.575 0.0297382716 168.575 293.567627 0.2961 293.567627" blush:i="0.4.1.1.0.0"/></defs><g id="Lower Body/Sitting on Floor/Spread Out 2" stroke="none" stroke-width="1" fill="none" fill-rule="evenodd" blush:viewBox="372.7999999999997 -4.659574468085111 1945.5499999999997 885.3191489361702" blush:i="0.4.1.1.1"><g id="Lower-Body" transform="translate(384.000000, 0.000000)" blush:i="0.4.1.1.1.0"><polygon id="Fill-1" fill="#F8D8B8" points="1626.2961 637.5588 1598.2961 740.4158 1649.2961 757.5588 1681.2961 656.5588" blush:i="0.4.1.1.1.0.0"/><polygon id="Fill-2" fill="#E4F9FF" points="1678.2961 649.5588 1642.2961 763.5588 1694.2961 780.5588 1732.2961 669.5588" blush:i="0.4.1.1.1.0.1"/><g id="Group-44" transform="translate(0.000000, 0.494000)" blush:i="0.4.1.1.1.0.2"><path d="M1736.2961,657.0648 C1736.2961,657.0648 1728.2961,657.0648 1718.2961,662.0648 C1708.2961,667.0648 1656.2961,736.0648 1686.2961,779.0648 C1686.2961,779.0648 1691.2961,782.0648 1697.2961,783.0648 C1703.2961,784.0648 1714.2961,802.0648 1733.2961,812.0648 C1733.2961,812.0648 1729.2961,799.0648 1744.2961,760.0648 C1759.2961,721.0648 1845.2961,514.0648 1886.2961,512.0648 C1886.2961,512.0648 1870.2961,499.0648 1821.2961,555.0648 C1775.0081,607.9648 1736.2961,657.0648 1736.2961,657.0648" id="Fill-3" fill="#2E2C36" blush:i="0.4.1.1.1.0.2.0"/><path d="M1733.2961,812.0648 C1733.2961,812.0648 1750.2961,841.0648 1777.2961,836.0648 C1804.2961,831.0648 1812.1331,806.3298 1821.2151,785.6978 C1830.2961,765.0648 1922.2121,538.0708 1922.2121,538.0708 C1922.2121,538.0708 1912.0891,505.3828 1884.3841,511.7228 C1852.2961,519.0648 1822.2961,587.0648 1822.2961,587.0648 L1735.2961,767.0648 C1735.2961,767.0648 1726.2961,793.0648 1733.2961,812.0648" id="Fill-5" fill="#E4F9FF" blush:i="0.4.1.1.1.0.2.1"/><g id="Group-9" transform="translate(1757.000000, 530.000000)" blush:i="0.4.1.1.1.0.2.2"><mask id="lower-bodysitting-on-floorspread-out-2-mask-2" fill="#ffffff" blush:i="0.4.1.1.1.0.2.2.0"><use xlink:href="#lower-bodysitting-on-floorspread-out-2-path-1" fill="#ffffff" blush:i="0.4.1.1.1.0.2.2.0.0"/></mask><g id="Clip-8" blush:i="0.4.1.1.1.0.2.2.1"/><path d="M0.2961,272.0648 L111.2961,34.0648 C111.2961,34.0648 134.2961,-6.9352 157.2961,1.0648 C180.2961,9.0648 162.2961,46.0648 154.2961,75.0648 C146.2961,104.0648 66.2961,274.0648 45.2961,290.0648 C30.6291,301.2398 1.2961,283.0648 0.2961,272.0648" id="Fill-7" fill="#2E2C36" mask="url(#lower-bodysitting-on-floorspread-out-2-mask-2)" blush:i="0.4.1.1.1.0.2.2.2"/></g><path d="M1697.2961,783.0648 C1697.2961,783.0648 1686.2961,754.0648 1699.2961,719.0648 C1712.2961,684.0648 1736.2961,657.0648 1736.2961,657.0648 C1736.2961,657.0648 1710.9961,649.1378 1689.6461,700.1018 C1668.2961,751.0648 1672.2961,778.0648 1697.2961,785.0648" id="Fill-10" fill="#3B3D4A" blush:i="0.4.1.1.1.0.2.3"/><path d="M1754.32678,663.617258 L1764.26562,662.512942 L1764.37717,663.638585 L1764.49627,665.025312 C1764.53546,665.514788 1764.57391,666.030786 1764.611,666.571164 C1764.99853,672.218099 1765.09214,678.101973 1764.70606,683.661488 C1764.43333,687.588835 1763.9288,691.150238 1763.14691,694.277778 C1761.87707,699.357153 1758.3077,703.347719 1752.76164,706.822951 L1752.17235,707.186724 C1748.71722,709.2875 1744.91378,711.038552 1738.60734,713.587144 L1732.13896,716.170819 C1726.43212,718.469238 1722.93427,720.041543 1719.71557,721.844872 C1715.61553,724.142563 1712.82702,729.058908 1711.34122,736.046471 C1710.23288,741.258875 1709.9781,746.87132 1710.24078,751.932475 L1710.28651,752.726884 C1710.30916,753.085174 1710.33293,753.409006 1710.35668,753.695685 L1710.40802,754.256585 L1700.46838,755.353615 L1700.39286,754.552736 C1700.37067,754.285327 1700.34732,753.975907 1700.32395,753.62702 L1700.30644,753.357994 C1699.92106,747.263709 1700.17351,740.486671 1701.5599,733.966621 C1703.58632,724.436553 1707.75704,717.08329 1714.8273,713.121065 C1718.50474,711.060719 1722.30144,709.352777 1728.36117,706.911721 L1733.22332,704.97281 C1746.97838,699.484632 1752.38429,696.097219 1753.44549,691.852422 C1754.06985,689.354962 1754.49501,686.353865 1754.73009,682.968712 C1755.07982,677.932564 1754.9931,672.481707 1754.63446,667.255829 L1754.56439,666.287247 C1754.54064,665.975371 1754.51654,665.674701 1754.4923,665.385899 L1754.34238,663.762956 L1754.32678,663.617258 Z" id="Stroke-12" fill="#FFF" fill-rule="nonzero" blush:i="0.4.1.1.1.0.2.4"/><path d="M466.4167,775.7921 C466.4167,775.7921 477.3987,819.6771 482.4557,827.5521 C487.5127,835.4261 581.4757,877.7511 611.4627,874.8581 C641.4497,871.9651 691.8617,852.8801 698.4727,838.5131 C705.0837,824.1461 696.1837,779.7921 686.6857,771.6301 C677.1867,763.4681 466.4167,775.7921 466.4167,775.7921" id="Fill-14" fill="#E4F9FF" blush:i="0.4.1.1.1.0.2.5"/><g id="Group-18" transform="translate(0.000000, 332.000000)" fill="#204EB2" blush:i="0.4.1.1.1.0.2.6"><path d="M16.1797,62.5732 C16.1797,62.5732 -57.7043,340.0652 110.2957,383.0652 C278.2957,426.0652 466.0337,387.1912 672.2957,320.0652 C841.2957,265.0652 834.2957,202.0652 1049.2957,264.0652 C1203.1397,308.4292 1599.2957,419.0652 1599.2957,419.0652 L1640.2957,299.0652 C1640.2957,299.0652 1049.2957,-5.9348 814.2957,1.0652 C726.2837,3.6862 449.1117,60.0562 449.1117,60.0562 L16.1797,62.5732 Z" id="Fill-16" blush:i="0.4.1.1.1.0.2.6.0"/></g><g id="Group-21" transform="translate(37.000000, 0.000000)" fill="#204EB2" blush:i="0.4.1.1.1.0.2.7"><path d="M0.9712,428.7904 C0.9712,428.7904 185.2962,47.0644 255.2962,13.0644 C325.2962,-20.9356 352.2962,20.0644 358.2962,65.0644 C364.2962,110.0644 494.2962,538.0644 494.2962,538.0644 L339.2962,579.0644 L0.9712,428.7904 Z" id="Fill-19" blush:i="0.4.1.1.1.0.2.7.0"/></g><polygon id="Stroke-22" fill="#000" fill-rule="nonzero" points="282.551887 365.987397 378.049887 565.832397 373.538513 567.988203 278.040513 368.143203" blush:i="0.4.1.1.1.0.2.8"/><path d="M508.8442,538.4777 L520.5632,576.8397 C473.9942,576.7947 437.1112,597.9907 427.0342,603.0387 L416.5112,565.4327 L508.8442,538.4777 Z" id="Fill-24" fill="#F7C8A9" blush:i="0.4.1.1.1.0.2.9"/><path d="M546.2759,649.3451 L444.4279,674.6511 L423.2959,598.0651 C423.2959,598.0651 423.5749,597.9341 425.2959,597.0651 C435.3729,592.0161 475.4189,573.3511 521.9879,573.397015" id="Fill-26" fill="#E4F9FF" blush:i="0.4.1.1.1.0.2.10"/><path d="M512.6682,801.3766 C512.6682,801.3766 584.0212,830.7676 632.3492,812.1516 C680.6782,793.5356 691.8032,781.1366 691.5272,779.9106 C691.2512,778.6856 611.2772,709.6706 595.5302,702.9166 C579.7832,696.1626 539.2172,666.6706 523.0842,692.1976 C506.9502,717.7246 482.9122,737.3056 486.0132,755.9236 C489.1142,774.5416 512.6682,801.3766 512.6682,801.3766" id="Fill-28" fill="#353644" blush:i="0.4.1.1.1.0.2.11"/><path d="M446.811,688.7792 C446.811,688.7792 450.745,754.8042 468.615,785.5472 L515.303,803.3582 C515.303,803.3582 501.823,767.8142 512.876,753.7342 C523.928,739.6542 530.263,724.0612 530.413,715.0132 C530.563,705.9652 570.9,695.5892 570.9,695.5892 C570.9,695.5892 577.614,710.8172 589.621,710.6872 C601.629,710.5572 663.471,755.4802 663.471,755.4802 C663.471,755.4802 648.335,739.5172 632.461,722.4902 C616.588,705.4622 560.959,651.4692 560.959,651.4692 L446.811,688.7792 Z" id="Fill-30" fill="#2C262B" blush:i="0.4.1.1.1.0.2.12"/><path d="M441.4919,661.9867 C441.4919,661.9867 431.5439,672.4287 437.8639,682.2807 C444.1839,692.1327 465.4259,686.3207 485.6929,680.7297 C505.9589,675.1377 554.5169,663.1717 558.0749,656.2197 C561.6339,649.2677 555.1909,634.3187 542.1659,631.1027 C542.1659,631.1027 545.9989,643.5647 540.5849,646.8347 C535.1709,650.1047 450.4219,674.3257 446.8359,672.0587 C443.2499,669.7907 441.4919,661.9867 441.4919,661.9867" id="Fill-32" fill="#3E454F" blush:i="0.4.1.1.1.0.2.13"/><path d="M513.9958,715.3551 C513.9958,715.3551 540.3778,686.8591 569.7948,694.5821 C569.7948,694.5821 579.4538,696.5061 575.9638,690.1171 C572.4738,683.7271 567.3768,683.8511 567.3768,683.8511 C567.3768,683.8511 568.0088,677.5581 562.6918,676.7061 C562.6918,676.7061 564.2988,670.1931 557.0308,669.7811 C557.0308,669.7811 554.7088,654.9281 539.0038,662.5671 C523.2988,670.2061 492.8378,676.0441 496.7668,684.3851 C500.6958,692.7251 502.9638,689.1391 502.9638,689.1391 C502.9638,689.1391 501.1358,694.6761 505.3808,699.8701 C509.6268,705.0631 508.9678,702.1371 508.9678,702.1371 C508.9678,702.1371 504.1168,712.4551 513.9958,715.3551" id="Fill-34" fill="#FFF" blush:i="0.4.1.1.1.0.2.14"/><path d="M499.281,690.9936 C499.281,690.9936 505.231,685.5526 514.986,683.3546" id="Stroke-36" stroke="#000" stroke-width="4" blush:i="0.4.1.1.1.0.2.15"/><path d="M560.7131,667.9262 C560.7131,667.9262 549.7621,669.3682 543.3731,672.8582" id="Stroke-38" stroke="#000" stroke-width="4" blush:i="0.4.1.1.1.0.2.16"/><path d="M572.0439,683.5956 C572.0439,683.5956 556.9619,683.1226 550.3529,685.6366" id="Stroke-40" stroke="#000" stroke-width="4" blush:i="0.4.1.1.1.0.2.17"/><path d="M504.5293,705.1872 C504.5293,705.1872 513.9413,696.9162 527.3793,692.8632" id="Stroke-42" stroke="#000" stroke-width="4" blush:i="0.4.1.1.1.0.2.18"/></g></g></g></g><g id="Expression" transform="translate(1633.000000, 1412.000000) scale(1 1)" fill="#000" blush:width="202" blush:height="224" blush:component="Expression" blush:i="0.4.1.2" blush:value="Make Up Wink" blush:viewBox="24.298226164079836 43.68000000000001 157.88248337028824 180.31999999999996"><defs blush:i="0.4.1.2.0"><polygon id="expressionmake-up-wink-path-1" points="0.000139166 0.824 77.7317814 0.824 77.7317814 24.5342 0.000139166 24.5342" blush:i="0.4.1.2.0.0"/><polygon id="expressionmake-up-wink-path-3" points="0.528516447 0.459695949 51.522 0.459695949 51.522 17.6481 0.528516447 17.6481" blush:i="0.4.1.2.0.1"/></defs><g id="Expression/Make Up Wink" stroke="none" stroke-width="1" fill="none" fill-rule="evenodd" blush:viewBox="24.298226164079836 43.68000000000001 157.88248337028824 180.31999999999996" blush:i="0.4.1.2.1"><g id="Group-19" transform="translate(21.000000, 25.000000)" blush:i="0.4.1.2.1.0"><path d="M128.2225,55.8772 C128.2225,59.1902 125.5365,61.8772 122.2225,61.8772 C118.9085,61.8772 116.2225,59.1902 116.2225,55.8772 C116.2225,52.5642 118.9085,49.8772 122.2225,49.8772 C125.5365,49.8772 128.2225,52.5642 128.2225,55.8772" id="Fill-3" fill="#000" blush:i="0.4.1.2.1.0.0"/><path d="M38.7602967,127.4406 C38.7602967,127.4406 38.5224,143.3896 60.8994,146.2466 C83.2764,149.1026 93.2754,146.2466 92.7994,136.0096 C92.7994,136.0096 89.2284,124.8216 83.9904,124.3456 C78.7534,123.8696 73.2784,126.7256 73.2784,126.7256 C73.2784,126.7256 68.0414,119.8226 62.5664,120.5366 C57.0904,121.2516 46.1404,127.6776 38.7602967,127.4406" id="Fill-12" fill="#CE4129" blush:i="0.4.1.2.1.0.1"/><g id="Group-7" transform="translate(0.000000, 0.176000)" blush:i="0.4.1.2.1.0.2"><mask id="expressionmake-up-wink-mask-2" fill="#ffffff" blush:i="0.4.1.2.1.0.2.0"><use xlink:href="#expressionmake-up-wink-path-1" fill="#ffffff" blush:i="0.4.1.2.1.0.2.0.0"/></mask><g id="Clip-6" blush:i="0.4.1.2.1.0.2.1"/></g><path d="M78.12,136.0759 C61.805,133.9009 42.292,131.0109 36.169,127.9499 C31.701,125.7149 30.056,126.2769 30.04,126.2839 C30.041,126.2839 31.473,121.1309 37.957,124.3709 C44.269,127.5279 70.145,130.9779 78.649,132.1119 C93.524,134.0939 94.866,133.3269 96.565,132.3579 L98.549,135.8299 C96.903,136.7719 95.349,137.3469 91.831,137.3469 C88.952,137.3469 84.758,136.9609 78.12,136.0759 Z" id="Fill-10" fill="#000" blush:i="0.4.1.2.1.0.3"/><g id="Group-16" transform="translate(109.000000, 18.176000)" blush:i="0.4.1.2.1.0.4"><mask id="expressionmake-up-wink-mask-4" fill="#ffffff" blush:i="0.4.1.2.1.0.4.0"><use xlink:href="#expressionmake-up-wink-path-3" fill="#ffffff" blush:i="0.4.1.2.1.0.4.0.0"/></mask><g id="Clip-15" blush:i="0.4.1.2.1.0.4.1"/><path d="M0.5721,10.3701 C0.5721,10.3701 1.2001,4.0961 8.8551,1.3351 C16.5101,-1.4259 43.2401,3.0921 45.2481,4.5981 C47.2551,6.1031 50.8951,9.7431 51.5221,17.6481 C51.5221,17.6481 48.6271,11.6261 43.3571,10.6221 C38.0861,9.6181 21.6551,14.1351 11.2391,14.0101 C0.8231,13.8841 0.3211,12.6291 0.5721,10.3701" id="Fill-14" fill="#000" mask="url(#expressionmake-up-wink-mask-4)" blush:i="0.4.1.2.1.0.4.2"/></g><path d="M65.4615,198.176 C51.6075,198.176 37.2855,194.136 27.0135,190.404 C13.8545,185.623 4.3075,180.297 4.2125,180.244 L5.6805,177.627 C6.0515,177.836 43.1465,198.389 72.7935,194.746 L73.1605,197.723 C70.6315,198.034 68.0535,198.176 65.4615,198.176" id="Fill-17" fill="#000" blush:i="0.4.1.2.1.0.5"/></g><g id="Group-124" transform="translate(25.000000, 52.000000)" fill="#000" fill-rule="nonzero" blush:i="0.4.1.2.1.1"><path d="M98.9388073,0.515726772 L102.747593,1.73767323 L102.375135,2.93095324 C102.075892,3.9043293 101.742122,5.01790967 101.382468,6.25291663 C100.354215,9.78380887 99.3257634,13.5761133 98.3662837,17.478955 C97.2996742,21.8175645 96.3854385,26.0250163 95.6702376,29.9976992 L95.4631649,31.1740325 C93.7257688,41.2776329 93.4803733,48.9926374 95.0328764,53.1417647 L95.1244408,53.3771728 C104.002358,75.340079 91.9464166,86.4779502 66.6424816,78.6786942 L65.8716485,78.4365483 L67.0907515,74.6268517 C89.8846425,81.9208968 99.0260452,73.7026714 91.4159925,54.8763096 C89.3210345,49.6942966 89.6433125,40.8993486 91.7335247,29.288974 C92.4647551,25.2272527 93.3964651,20.9393815 94.4819426,16.5240234 C95.3476055,13.0027971 96.2678852,9.57278889 97.1943734,6.33814281 L97.5420029,5.13451153 C97.7507758,4.41761123 97.9510908,3.74056192 98.1413397,3.10683734 L98.6297394,1.50244969 L98.9388073,0.515726772 Z" id="Stroke-114" blush:i="0.4.1.2.1.1.0"/><path d="M0.1850015,153.534088 L2.1419985,150.045512 L2.85620174,150.434727 L3.51128674,150.782909 C4.50308988,151.305335 5.6321651,151.880908 6.88714027,152.498006 L7.43266178,152.764985 C11.6537624,154.821142 16.3218862,156.878362 21.3004212,158.797989 C32.7483158,163.212076 44.0600582,166.224884 54.584272,167.202241 C59.3535856,167.645156 63.8735301,167.656119 68.1063644,167.201856 L68.9490919,167.10479 L69.4379081,171.07481 C64.6629697,171.662733 59.5745075,171.682884 54.2143935,171.185103 C43.2765951,170.169337 31.6251616,167.066055 19.8613669,162.530163 C14.7706849,160.567294 9.99959664,158.464698 5.68097489,156.361037 L4.04785364,155.55429 C3.35348222,155.206284 2.70158001,154.872883 2.09423579,154.556252 L0.962732129,153.958187 L0.1850015,153.534088 Z" id="Stroke-122" blush:i="0.4.1.2.1.1.1"/></g><g id="Group-16" transform="translate(90.000000, 52.000000)" fill="#000" blush:i="0.4.1.2.1.2"><path d="M15.8252,81.1664 C11.7822,81.1664 6.7382,80.3754 0.4432,78.3614 L1.6612,74.5514 C13.3852,78.3024 22.0452,77.9964 26.0462,73.6874 C29.4492,70.0204 29.4282,63.3134 25.9872,54.8014 C23.6522,49.0264 24.2292,38.0734 27.7022,22.2454 C30.2432,10.6624 33.4772,0.5414 33.5102,0.4404 L37.3182,1.6624 C33.8112,12.5954 25.6062,43.1874 29.6952,53.3024 C34.8932,66.1604 32.1742,72.9644 28.9772,76.4084 C26.6972,78.8664 22.7182,81.1664 15.8252,81.1664" id="Fill-5" blush:i="0.4.1.2.1.2.0"/></g><path d="M25,55.4906 C25,55.4906 40.26,46.2806 51.897,44.1856 C59.082,42.8926 98.756,48.4916 97.492,56.5816 C96.26,64.4636 92.346,63.4026 76.686,60.7116 C61.026,58.0196 53.873,56.2246 44.82,57.2036 C35.766,58.1816 25.245,60.1396 25,55.4906" id="Fill-7" fill="#000" blush:i="0.4.1.2.1.3"/><path d="M78.6362,79.1289 C77.9112,79.1289 77.1852,78.8679 76.6092,78.3389 C76.5712,78.3049 71.6242,73.9129 64.4832,74.1789 C57.0942,74.4519 52.1892,78.0669 52.1402,78.1029 C50.8182,79.0929 48.9392,78.8329 47.9442,77.5169 C46.9472,76.1999 47.1962,74.3309 48.5082,73.3279 C48.7642,73.1319 54.8862,68.5299 64.2612,68.1829 C73.9102,67.8359 80.3942,73.6699 80.6652,73.9189 C81.8862,75.0389 81.9682,76.9369 80.8472,78.1569 C80.2562,78.8019 79.4472,79.1289 78.6362,79.1289" id="Fill-12" fill="#000" blush:i="0.4.1.2.1.4"/></g></g><g id="Hairstyle" transform="translate(1142.000000, 1085.000000) scale(1 1)" fill="#000" blush:width="826" blush:height="747" blush:component="Hairstyle" blush:i="0.4.1.3" blush:value="Short Combed Hair" blush:viewBox="441.9100000000001 199.97123893805315 268.45 214.84513274336274"><defs blush:i="0.4.1.3.0"><polygon id="hairstyleshort-combed-hair-path-1" points="0 0.000226663446 267.056737 0.000226663446 267.056737 209.265844 0 209.265844" blush:i="0.4.1.3.0.0"/></defs><g id="Hairstyle/Short Combed Hair" stroke="none" stroke-width="1" fill="none" fill-rule="evenodd" blush:viewBox="441.9100000000001 199.97123893805315 268.45 214.84513274336274" blush:i="0.4.1.3.1"><g id="Group-3" transform="translate(443.000000, 202.000000)" blush:i="0.4.1.3.1.0"><mask id="hairstyleshort-combed-hair-mask-2" fill="#ffffff" blush:i="0.4.1.3.1.0.0"><use xlink:href="#hairstyleshort-combed-hair-path-1" fill="#ffffff" blush:i="0.4.1.3.1.0.0.0"/></mask><g id="Clip-2" blush:i="0.4.1.3.1.0.1"/><path d="M19.0412,171.117 C19.0412,171.117 -16.9588,126.117 10.0412,64.117 C37.0412,2.117 99.0412,-6.883 136.0412,6.117 C136.0412,6.117 265.0412,-30.883 267.0412,77.117 C268.6742,165.306 141.0412,95.117 141.0412,95.117 C141.0412,95.117 141.0412,147.117 90.0412,141.117 C39.0412,135.117 39.0412,213.117 30.0412,209.117 C21.0412,205.117 19.0412,171.117 19.0412,171.117" id="Fill-1" fill="#0f0f0f" mask="url(#hairstyleshort-combed-hair-mask-2)" blush:color="Hair-500" blush:i="0.4.1.3.1.0.2"/></g></g></g><g id="Accessories" transform="translate(1586.000000, 1445.000000) scale(1 1)" blush:width="234" blush:height="78" blush:component="Accessories" blush:i="0.4.1.4" blush:value="None" blush:viewBox="409.5 136.5 0 0"><g id="Accessories/None" stroke="none" stroke-width="1" fill="none" fill-rule="evenodd" fill-opacity="0" blush:viewBox="409.5 136.5 0 0" blush:i="0.4.1.4.0"/></g><g id="Facial Hair" transform="translate(1596.000000, 1446.000000) scale(1 1)" blush:width="212" blush:height="211" blush:component="Facial Hair" blush:i="0.4.1.5" blush:value="None" blush:viewBox="371 369.25 0 0"><g id="Facial Hair/None" stroke="none" stroke-width="1" fill="none" fill-rule="evenodd" fill-opacity="0" blush:viewBox="371 369.25 0 0" blush:i="0.4.1.5.0"/></g></g></g></g></svg>