<svg fill="none" height="540" viewBox="0 0 600 540" width="600" xmlns="http://www.w3.org/2000/svg"><path d="m187.756 69c1.134.5222 2.031.8763 2.875 1.3277 3.429 1.8323 6.867 2.5936 10.894 1.8058 6.103-1.195 12.302-.8586 18.342.8497 1.328.3718 2.585 1.0003 4.133 1.6199-1.398 2.744-4.08 3.6291-5.962 5.3729-1.899 1.7526-4.044 3.045-6.489 3.8062-2.515.7789-5.047 1.4871-7.905 2.328.484.7435.73 1.3897 1.187 1.7703 2.48 2.0801 5.021 4.0717 7.51 6.1342.729.6107 1.354 1.3543 2.101 2.1067-.826 1.7526-2.277 2.6643-3.579 3.6734-5.003 3.8412-8.942 6.2052-11.905 7.2052-3.526-4.576-3.553-10.4892-5.619-15.9595-.624.4161-1.134.6108-1.433.9914-1.222 1.5402-2.383 3.1423-3.561 4.7179-2.339 3.1069-5.443 5.2672-8.784 7.0992-.466.257-1.029.318-1.671.504-1.231-2.221-.932-4.4608-.589-6.6738.791-5.1162 3.341-9.542 5.662-14.0475.449-.8763 1.047-1.6729 1.522-2.5404 1.732-3.1069 3.148-6.3112 2.761-10.02-.044-.4072.07-.8321.132-1.2481 0-.1416.096-.2567.378-.8232z" fill="#1e1928" fill-opacity=".08"/><path d="m329.567 312.826c-.565-.53-1.131-1.06-1.696-1.59-5.315-4.008-10.622-8.008-15.937-12.017l-.036-.026c-5.916-4.239-11.831-8.477-17.747-12.724l-.018-.018c-4.229-3.373-8.468-6.746-12.697-10.119l.017.027c-.362-2.216-.732-4.424-1.094-6.64 1.977-2.022 4.494-2.084 6.896-1.413 5.289 1.475 10.595 2.994 15.708 4.98 2.472.963 4.512 3.02 6.763 4.565 6.34 4.362 12.662 8.759 19.046 13.068 2.693 1.81 5.519 3.426 8.282 5.13 1.431.919 2.861 1.828 4.283 2.746 2.225 1.916 4.459 3.832 6.684 5.748 1.165.901 2.322 1.802 3.488 2.702 1.907 1.086 3.823 2.172 5.73 3.258 1.21.857 2.419 1.713 3.629 2.57 9.616 5.898 19.24 11.796 28.864 17.668.204.124.548.009.83.009 1.66.98 3.32 1.951 4.98 2.931 7.903 5.819 15.806 11.638 23.708 17.457 1.139.883 2.287 1.766 3.426 2.658l-.044-.036c1.43 1.175 2.861 2.349 4.291 3.532.283.203.565.415.848.618 1.413 1.201 2.825 2.402 4.247 3.603 2.728 2.781 5.466 5.554 8.194 8.335 1.236 1.422 2.472 2.843 3.717 4.265.212.265.415.53.627.803.91 1.175 1.819 2.358 2.729 3.532 3.452 6.958 7.823 13.174 14.365 17.607 1.413.962 2.835 1.933 4.248 2.896 1.651 1.307 3.302 2.613 4.953 3.929 1.174.936 2.349 1.872 3.523 2.808 1.987 1.872 3.974 3.735 5.96 5.607 1.704 1.73 3.417 3.47 5.121 5.2.486 1.113.981 2.217 1.466 3.329.009 3.329.027 6.649.036 9.978-1.934 2.755-3.877 5.501-5.811 8.256-6.542 4.37-13.783 5.501-21.403 4.37-4.309-.635-8.697-1.262-12.821-2.587-6.304-2.022-12.458-1.448-18.772-.353-7.196 1.254-14.41 2.746-21.676 3.117-20.477 1.042-39.778-4.839-58.965-11.011-6.808-2.189-13.527-4.626-20.291-6.958l-.097-.017c-.203-.177-.38-.442-.618-.53-18.94-7.399-38.065-14.366-56.767-22.313-18.065-7.673-35.707-16.37-53.534-24.608l-.071-.044c-6.189-3.391-12.37-6.773-18.56-10.163l-.035-.036c-8.459-4.785-16.927-9.571-25.395-14.357l-.052-.044c-1.758-1.077-3.515-2.154-5.272-3.24-.83-.813-1.651-1.625-2.481-2.437-.821-1.175-1.651-2.349-2.472-3.523l.026.079c0-2.252-.009-4.494-.009-6.746.239-.591.477-1.183.707-1.766 1.492-1.068 2.975-2.137 4.468-3.205 7.196.044 13.483 3.073 19.778 6.057 2.322 1.104 4.671 2.155 7.002 3.223 1.413.636 2.834 1.263 4.247 1.898 2.305 1.051 4.601 2.093 6.905 3.144 1.651.945 3.302 1.889 4.954 2.825 9.906 4.345 19.822 8.662 29.712 13.042 3.973 1.757 7.832 3.788 11.849 5.448 6.402 2.64 12.883 5.077 19.337 7.593 2.305 1.219 4.6 2.428 6.905 3.647 5.006 1.042 10.013 2.093 15.019 3.135.919-.036 1.837-.08 2.755-.115-.803-.874-1.607-1.757-2.41-2.632-1.395-1.377-2.79-2.754-4.194-4.141-1.069-.918-2.128-1.845-3.197-2.763l-.053-.044c-1.112-.83-2.234-1.66-3.355-2.482 0 0-.053-.044-.044-.035-4.009-2.719-8.009-5.43-12.017-8.15-1.969-1.157-3.939-2.313-5.908-3.47-3.355-2.022-6.719-4.053-10.074-6.075 0 0-.036-.026-.036-.017-7.311-4.53-14.63-9.06-21.941-13.589l-.045-.036c-1.668-1.563-3.576-3.046-1.818-5.704-.027-.282-.045-.565-.071-.856-1.06-2.746-2.269-5.483-.795-8.468 3.249-2.887 6.075-3.267 9.704-1.457 4.539 2.269 9.121 4.442 13.686 6.658 1.784 1.148 3.567 2.304 5.342 3.452 6.773 3.762 13.483 7.629 20.335 11.241 4.945 2.613 10.075 4.882 15.116 7.311 1.466.865 2.932 1.73 4.406 2.595 3.939 1.669 7.877 3.329 11.815 4.998 1.421.618 2.834 1.245 4.256 1.863 3.964 1.351 7.92 2.702 11.884 4.044 2.782 1.439 5.554 2.879 8.336 4.318.574.344 1.103.777 1.721 1.007.548.203 1.184.185 1.775.264-.309-.547-.53-1.174-.953-1.615-.354-.371-.928-.521-1.404-.769-2.808-1.969-5.625-3.938-8.433-5.898l-.035-.018c-2.852-1.916-5.704-3.84-8.556-5.756-.883-.574-1.766-1.148-2.649-1.731-.856-.247-21.968-11.338-25.332-13.607-.283-.265-.566-.53-.839-.794-2.826-1.969-5.651-3.947-8.468-5.916-.883-.574-1.775-1.139-2.658-1.713-6.693-4-13.386-8.009-20.079-12.009l-.052-.017c-1.396-.839-2.791-1.678-4.195-2.517 0 0-.044-.026-.044-.018-4.044-2.772-7.982-5.703-12.149-8.255-3.17-1.943-6.64-3.409-9.978-5.095-1.704-1.148-3.408-2.287-5.112-3.435-2.208-1.457-4.424-2.914-6.632-4.371l-.026-.017c-7.046-5.086-14.083-10.181-21.13-15.267 0 0-.035-.035-.035-.026-1.951-1.413-3.911-2.826-5.863-4.239l-.053-.035c-3.108-2.516-6.225-5.024-9.333-7.54l-.017-.018c-1.166-.786-2.34-1.572-3.506-2.358-1.13-1.421-2.26-2.834-3.39-4.256-1.131-2.525-2.261-5.059-3.391-7.584-1.431-2.693 1.121-3.859 2.234-5.492.644-.945 1.881-1.484 2.861-2.208 2.799.062 5.606.124 8.406.186 5.624 2.507 11.257 5.015 16.882 7.531 1.13.945 2.26 1.899 3.399 2.844 8.795 5.765 17.466 11.725 26.419 17.235 8.812 5.422 17.907 10.384 26.869 15.549 1.739 1.175 3.479 2.34 5.218 3.515.512.238 1.033.485 1.545.724 1.457.874 2.914 1.748 4.371 2.622l-.044-.035c1.43.891 2.852 1.774 4.282 2.666.795.512 1.59 1.025 2.384 1.537 1.201.874 2.393 1.739 3.594 2.613 3.373 2.216 6.755 4.442 10.128 6.658 1.139.892 2.287 1.783 3.426 2.666 3.673 1.934 7.346 3.868 11.01 5.793 1.713.547 3.426 1.095 5.148 1.642l.044.018c1.651.918 3.311 1.845 4.963 2.763 3.063 1.652 6.127 3.303 9.182 4.954 1.448.953 2.897 1.907 4.345 2.861 1.333.75 2.675 1.501 4.008 2.242 1.501.866 3.011 1.731 4.512 2.596 5.563 3.091 11.126 6.172 16.68 9.263 1.783 1.148 3.576 2.287 5.359 3.435 2.826 1.368 5.66 2.737 8.486 4.105.724.345 1.421.804 2.189 1.007.548.141 1.184-.071 1.784-.124-.459-.565-.927-1.13-1.386-1.695-.821-1.43-1.634-2.861-2.455-4.291-2.243-2.861-4.477-5.722-6.719-8.592l-.027-.035c-1.73-1.368-3.461-2.737-5.201-4.106-.865-.847-1.721-1.686-2.587-2.534-1.395-1.112-2.79-2.225-4.185-3.337-.847-.583-1.686-1.166-2.534-1.749-1.13-.839-2.269-1.669-3.399-2.507-1.131-.857-2.261-1.713-3.391-2.579-1.651-1.465-3.294-2.922-4.945-4.388 0 0-.026-.018-.017-.018-2.278-1.704-4.592-3.373-6.896-5.05z" fill="#1e1928" fill-opacity=".08"/><path d="m197.368 251.062c-1.457-.283-2.914-.565-4.37-.848-1.563-.238-3.126-.477-4.68-.724.247 1.351.503 2.711.75 4.062 3.832 8.247 6.587 16.697 2.102 25.509-1.881 3.69-4.318 7.258-7.143 10.286-7.232 7.735-15.965 12.821-26.86 13.377-1.581-.3-3.17-.591-4.751-.891-2.596-.539-5.192-1.087-7.788-1.625-2.207-1.245-4.282-1.351-6.083.742-1.307.618-2.605 1.236-3.912 1.854-1.483.521-2.976 1.042-4.459 1.554-3.876 1.157-7.752 2.322-11.629 3.479-1.995.265-3.999.53-5.995.794l.053-.035c-4.238.018-8.477.044-12.7149.062l-.3355-.115-.3531.053c-2.3046-.282-4.6092-.565-6.9226-.856l.053.035c-2.2781-.539-4.5561-1.077-6.843-1.616l-.2914-.141-.3179.026c-3.1875-1.112-6.3751-2.216-9.5626-3.329l.0177.009c-1.4128-.529-2.8255-1.059-4.2383-1.589-1.7483-.592-3.4965-1.192-5.2448-1.784-1.6424-.547-3.2847-1.095-4.9359-1.642l-.3178-.15-.3532.026c-1.4745-.556-2.9491-1.112-4.4237-1.668l.0353.017c-1.4216-.53-2.8432-1.059-4.2559-1.589-2.2781-1.157-4.565-2.313-6.843-3.479-1.1038-2.031-2.2075-4.053-3.3024-6.084-.4591-3.708 2.1722-5.907 4.1323-8.432.5916-.53 1.1744-1.06 1.766-1.589 2.2427-.168 4.4767-.345 6.7194-.513 12.4146 1.828 24.3877 6.561 37.2261 5.66 2.6313 0 5.2714.009 7.9027.009 2.9845.318 6.0305.733 6.6315-3.479.317-1.695.626-3.39.944-5.095.23-.874.459-1.739.689-2.613.336-.459.671-.918 1.007-1.378 1.978 1.846 4.3 3.444 5.863 5.599 3.258 4.476 6.534 8.918 11.575 11.425 10.049 4.998 20.777 2.508 28.803-5.933 5.174-5.44 9.289-11.126 7.567-19.099-.706-3.276-1.678-6.578-3.135-9.58-6.295-12.98-16.688-20.062-31.177-20.953 2.984-4.406 5.977-8.821 8.962-13.227.618-.601 1.227-1.21 1.845-1.81 5.581-5.554 11.673-4.415 18.057-1.607 5.474 2.41 11.09 4.503 16.635 6.737 1.731.371 3.453.75 5.183 1.121 4.751.759 9.501 1.528 14.251 2.287 1.766.265 3.532.521 5.298.786 3.762.848 7.479 1.898 11.276 2.481 7.249 1.121 13.695 4.168 19.973 7.717.883.857 1.766 1.713 2.649 2.578 2.543 3.338 4.414 6.835 2.746 11.197-.654.759-1.298 1.509-1.952 2.269-5.121 2.243-10.534 2.631-16.026 2.516-2.551.018-5.103.027-7.655.044l-.318-.097-.353.062c-3.726-.265-7.452-.53-11.17-.803z" fill="#da5e74"/><path d="m127.985 228.828c14.49.892 24.882 7.974 31.178 20.953 1.457 3.002 2.428 6.305 3.134 9.581 1.722 7.973-2.392 13.659-7.567 19.098-8.026 8.441-18.754 10.931-28.802 5.934-5.042-2.508-8.327-6.949-11.576-11.426-1.563-2.154-3.885-3.752-5.872-5.598-2.525-.433-5.059-.865-7.584-1.307l.044.036c-2.0135-1.66-4.0179-3.32-6.0311-4.971l.0266.044c-1.1126-1.457-2.2252-2.905-3.3377-4.362l.0618.079c-.9271-2.154-1.8454-4.317-2.7725-6.472-.2472-1.192-.5033-2.384-.7505-3.567-.0354-2.826-.0707-5.66-.106-8.486.5739-1.695 1.139-3.381 1.713-5.077 1.0595-.847 2.1279-1.704 3.1875-2.551 1.298-.557 2.596-1.104 3.8851-1.66 4.8918-1.943 10.0128-3.17 15.0808-1.413 5.351 1.836 10.64 1.987 16.088 1.165z" fill="#582041"/><path d="m157.177 302.733c10.895-.565 19.628-5.642 26.86-13.377 2.825-3.02 5.262-6.587 7.143-10.286 4.485-8.813 1.722-17.254-2.111-25.51.513-.017 1.016-.044 1.528-.061 1.06.353 2.11.706 3.17 1.059 1.448 1.236 2.896 2.473 4.344 3.709 1.899 2.437 3.797 4.874 5.695 7.32.654 2.825 1.316 5.651 1.969 8.476l-.044-.079c.009 1.686.018 3.381.027 5.068l-.15.185.15.186c-.557 1.554-1.113 3.099-1.678 4.653l.009-.018c-.68 1.395-1.36 2.791-2.031 4.186-3.126 5.712-3.126 5.712 2.552 8.759.353.185.627.521.945.786 2.322 1.501 4.635 3.002 6.957 4.503.813.468 1.625.936 2.437 1.404 1.157.883 2.314 1.766 3.47 2.649l-.035-.027c1.431 1.166 2.861 2.331 4.291 3.497.468.22.928.45 1.396.671l7.125 5.907-.009-.009c1.678 1.245 3.364 2.49 5.042 3.735.556.45 1.113.901 1.669 1.342 1.404 1.183 2.808 2.375 4.212 3.558l-.08-.079c1.139 1.377 2.278 2.755 3.426 4.123 2.243 8.159 1.431 10.72-4.538 14.163-8.336-.733-16.265-2.719-23.549-7.081-2.234-1.342-4.874-2.013-7.329-2.993-1.13-.53-2.26-1.06-3.391-1.59-1.624-.909-3.249-1.819-4.882-2.728l-.08-.027c-3.081-1.412-6.172-2.825-9.253-4.238l-.045-.009c-2.869-1.624-5.739-3.258-8.609-4.883-.856-.556-1.712-1.112-2.569-1.677-3.611-2.314-7.231-4.618-10.843-6.932l-.035-.017c-2.525-1.413-5.051-2.817-7.576-4.23l-.053-.017c-1.828-1.342-3.682-2.711-5.527-4.071z" fill="#00396f"/><path d="m127.985 228.828c-5.448.83-10.737.68-16.088-1.165-5.068-1.749-10.19-.521-15.0813 1.413-2.1015-1.987-4.2118-3.983-6.3133-5.969-1.5893-1.757-3.1875-3.523-4.7768-5.281l.0353.053c-.5387-1.677-1.0773-3.355-1.6159-5.032.362-6.102 4.4767-8.857 9.5803-10.729 3.1434-.035 6.2777-.07 9.4217-.106 1.465.53 2.922 1.06 4.388 1.59l.194.221.283-.08c1.518.574 3.028 1.148 4.547 1.722l-.026-.018c1.404.601 2.799 1.201 4.203 1.801l-.009-.026c1.995.83 4 1.66 5.995 2.49l-.018-.018c1.422.557 2.852 1.122 4.274 1.678v-.018c1.395.61 2.799 1.228 4.194 1.837.795.238 1.598.486 2.393.724 1.13.565 2.269 1.139 3.399 1.704-3.002 4.388-5.995 8.794-8.979 13.209z" fill="#00396f"/><path d="m93.7168 202.11c-5.1036 1.871-9.2183 4.617-9.5803 10.728-.3973.026-.7859.061-1.1832.088-1.9867-1.413-3.9645-2.817-5.9512-4.229-1.404-.83-2.8079-1.66-4.2118-2.49-.6005-.345-1.1832-.742-1.8101-1.034-2.1545-.997-3.8321-2.278-3.2494-5.033.574-2.71 2.1721-4.264 4.9182-4.918 5.5892-1.333 10.3573.495 14.9664 3.382 1.9867 1.236 4.0617 2.34 6.1014 3.506z" fill="#e7634c"/><path d="m45.5947 276.368c-1.9602 2.525-4.5915 4.723-4.1323 8.432-.2914.079-.5828.168-.8742.247-2.8785-1.104-5.7835-2.137-8.6266-3.337-1.4305-.601-3.5143-.76-2.9492-3.338.0707-.336-.9889-.954-1.5717-1.395-2.2516-1.696-1.5717-3.612.0442-5.687 2.6577-3.408 4.5031-1.43 6.7724-.008.8123.512 1.8101.732 2.7196 1.094.7328.627 1.5982 2.146 1.9072-.247.1413-1.068.1589-2.154.2384-3.231 2.1721 2.498 4.3266 4.988 6.4722 7.47z" fill="#dfb995"/><path d="m234.869 247.088c1.669-4.37-.203-7.867-2.746-11.196.892-.291 1.783-.582 2.666-.865 3.833-.848 7.665-1.695 11.488-2.543-.097 1.616.009 2.931 2.287 2.472 1.218-.247 2.331.018 1.236 1.678-.653.477-1.307.954-1.96 1.439.644.115 1.28.239 1.925.353 1.766.751 1.386 1.572.079 2.42l-.009-.053c-1.368.194-2.737.379-4.097.574 1.395.371 2.79.733 4.186 1.103.291.592.582 1.192.865 1.784-2.587-.044-5.183-.124-7.77-.088-.512.009-1.025.45-1.537.688.512.442 1.025.883 1.537 1.334-1.051.485-2.102.98-3.152 1.465-1.678-.194-3.338-.379-4.998-.565z" fill="#dfb995"/><path d="m240.934 343.244c5.96-3.435 6.782-5.996 4.539-14.154.318.097.644.194.962.291 2.172 2.446 4.345 4.901 6.517 7.346.547 4.795-.68 6.49-5.36 6.826-2.199.167-4.433-.186-6.658-.309z" fill="#e7634c"/><path d="m495.624 187.799c-4.899 4.098-9.806 8.19-14.706 12.288-.791.621-1.576 1.241-2.367 1.862-1.367 1.149-2.741 2.292-4.109 3.44-.785.621-1.57 1.248-2.361 1.868-1.171.996-2.336 1.991-3.508 2.986-.993.774-1.987 1.542-2.98 2.317-3.637 2.205-7.28 4.411-10.916 6.617-1.172.706-1.172.7-.307 1.689 1.595.387 3.189.781 4.79 1.168l-.013-.006c1.38.202 2.754.399 4.134.602l-.019-.013c1.374.234 2.748.467 4.122.701 4.305.946 8.616 1.892 12.921 2.845 1.386.424 2.766.841 4.152 1.265.766.172 1.527.344 2.293.522 1.196.431 2.392.855 3.588 1.285 2.153.546 4.311 1.099 6.464 1.646 1.969.621 3.937 1.247 5.9 1.868.766.166 1.533.338 2.299.504 2.772.983 5.538 1.966 8.304 2.949l-.018-.012c.981.417 1.962.841 2.949 1.259 1.546.572 3.091 1.137 4.637 1.708 1.012.387 2.017.774 3.029 1.168l-.012-.006c.975.436 1.956.872 2.931 1.302.381.16.755.32 1.135.479 1 .418 1.999.836 2.999 1.254 1.741.762 3.477 1.53 5.219 2.291 1.594 1.014 3.183 2.028 4.771 3.042.178.35.356.706.54 1.057.171.97.343 1.935.515 2.906-1.993 3.895-3.729 7.95-6.029 11.649-4.74 7.612-9.794 15.022-14.694 22.53-1.907 2.925-3.753 5.892-5.629 8.835-.62.799-1.239 1.592-1.852 2.384-2.809 4.51-5.55 9.057-8.451 13.505-1.73 2.654-3.71 5.155-5.575 7.723-.619.786-1.239 1.573-1.864 2.359-5.863 6.286-11.787 12.516-17.552 18.9-1.846 2.045-2.165 2.297-4.471.522-.686-.529-1.324-1.131-1.987-1.696-.791-.959-1.582-1.911-2.373-2.869-4.109-4.94-8.494-9.671-12.259-14.857-7.194-9.928-14.032-20.128-21.023-30.204-2.833-4.08-5.685-8.147-8.524-12.22-.479-.603-.957-1.205-1.435-1.807-.123.615-.282 1.229-.35 1.856-.061.565-.006 1.142-.006 1.714l.012-.019c-.19 1.192-.386 2.378-.576 3.57-.043.172-.043.35-.013.529-.233 1.388-.459 2.777-.693 4.165-1.11 5.118-1.98 10.304-3.391 15.342-1.594 5.702-3.293 11.44-5.648 16.853-2.784 6.408-6.286 12.509-9.53 18.715-.718 1.37-1.668 2.617-2.509 3.92-.613.792-1.232 1.579-1.845 2.372-1.938 2.549-3.876 5.099-5.808 7.649-.816.989-1.631 1.972-2.453 2.961-3.392 4.27-6.869 8.479-10.144 12.835-1.858 2.47-3.385 5.186-5.065 7.791-.607.793-1.214 1.591-1.822 2.384-1.944 2.783-3.882 5.566-5.826 8.35-.619.749-1.238 1.505-1.852 2.255-.361.393-.729.786-1.091 1.185-.791.787-1.582 1.579-2.374 2.366-2.238 2.531-3.072 2.421-4.624-.479-3.121-5.843-6.402-11.607-9.376-17.523-1.656-3.3-2.822-6.851-4.208-10.285-.398-.971-.797-1.942-1.195-2.913-1.515-3.686-3.14-7.336-4.502-11.078-.552-1.517-.546-3.244-.791-4.878-.19-1.597-.38-3.195-.57-4.792.037-.166.037-.338 0-.504-.196-1.794-.393-3.588-.595-5.382.031-.172.031-.344-.006-.516-.19-4.578-.54-9.161-.521-13.739.024-6.039.337-12.073.527-18.112l-.006.018c.202-1.776.405-3.545.601-5.321l-.012.019c.196-1.579.398-3.158.594-4.737l-.012.018c.399-2.365.791-4.731 1.19-7.09l-.012.018c.196-1.192.398-2.377.595-3.569.19-.996.38-1.985.57-2.98.208-1.174.411-2.341.619-3.515.773-2.377 1.552-4.749 2.325-7.127.404-1.351.809-2.703 1.214-4.055l-.013.025c.393-1.585.779-3.171 1.172-4.756 1.171-4.129 2.343-8.264 3.514-12.392.196-1.174.398-2.347.595-3.527.037-.178.037-.356.012-.535.196-1.788.386-3.576.583-5.363 0-.781-.006-1.567-.006-2.347-.197-1.174-.399-2.348-.595-3.521-.926-1.905-1.73-3.877-2.803-5.689-3.483-5.88-7.071-11.699-10.622-17.542-.251-.418-.582-.798-.766-1.247-2.736-6.58-5.452-13.173-8.169-19.765-.104-2.059 1.398-1.745 2.625-1.752 8.726-.012 17.447.074 26.174-.067 2.582-.043 5.158-.731 7.733-1.118.963-.197 1.926-.394 2.883-.59 1.202-.197 2.397-.393 3.599-.59 6.041-2.636 12.211-5.02 18.098-7.969 7.611-3.809 14.994-8.073 22.476-12.141 1.392-.761 2.784-1.529 4.17-2.297.374-.222.755-.443 1.129-.664.987-.559 1.975-1.124 2.968-1.69l-.025.013c.982-.406 1.963-.811 2.938-1.223 2.159-1.186 4.311-2.372 6.47-3.557.993-.572 1.987-1.149 2.974-1.721l-.024.013c1.183-.596 2.367-1.192 3.551-1.782l-.025.012c2.557-1.192 5.115-2.378 7.672-3.57.779-.411 1.558-.817 2.337-1.228.987-.375 1.974-.756 2.968-1.131 1.944-.977 3.888-1.954 5.838-2.931 1.012-.393 2.03-.78 3.042-1.173 3.496-1.18 6.997-2.366 10.493-3.545 1.208-.394 2.416-.787 3.63-1.174.755-.197 1.503-.393 2.257-.59 2.171-.399 4.336-.798 6.507-1.198l-.012.006c1.594-.387 3.189-.774 4.789-1.167 1.932-.393 3.858-.793 5.79-1.186 3.924 0 7.856 0 11.78.006l-.018-.012c3.349.197 6.691.393 10.039.59.172.037.344.043.515.006 1.589.197 3.177.393 4.772.59l-.013-.006c1.184.393 2.368.78 3.545 1.173l-.006-.006c1.171.412 2.343.829 3.514 1.241-2.723 5.929-5.36 11.895-8.187 17.775-4.336 9.019-10.818 16.589-16.834 24.459-1.399 1.831-2.944 3.552-4.422 5.327-1.343 1.217-2.717 2.433-4.091 3.65zm-154.567-.203c-.571.277-.932.455-1.288.633.693.246 1.367.565 2.079.713.282.055.644-.271.969-.424-.601-.314-1.196-.627-1.76-.922z" fill="#ede6dd"/><path d="m338.724 205 11.276-17.864s-15.287-.031-15.418-.062c-.745-.182-3.035-.176-2.503 1.831z" fill="#ff9e7d"/></svg>